<svg xmlns="http://www.w3.org/2000/svg" xmlns:xlink="http://www.w3.org/1999/xlink" xmlns:lucid="lucid" width="1282" height="692"><g transform="translate(-479 -489)" lucid:page-tab-id="0_0"><path d="M549.77 700h60.46v60h-60.46z" fill="#fff" fill-opacity="0"/><path d="M561.78 728.63l1.77-2.7c1.03-1.6 2.4-3.32 4.37-3.32 1.26 0 1.93.48 1.93 1.3 0 .76-.5 1.66-1.53 1.66-.87 0-1.07-.35-1.74-.35-1.18 0-1.6.64-2.16 1.5l-2.17 3.35c1.18 2.44 2.1 7.76 3.86 7.76.64 0 1.6-.54 2.4-2.24l.56.4c-.47.6-2.24 4.37-4.52 4.37-1.62 0-2.37-1.62-2.88-3.03l-1.57-4.45-2.5 3.86c-1.26 1.94-2.4 3.63-4.6 3.63-1.42 0-2.05-1-2.05-1.85 0-.63.5-1.46 1.5-1.46 1.02 0 .86.8 1.85.8.47 0 1.5-.4 2.75-2.33l2.56-4-1.3-3.62c-.66-1.88-1.68-3.5-3.85-3.5-.5 0-1.1.08-1.5.24l-.1-.7 5.2-1.3c1.72.93 2.47 2.55 2.94 3.85M579.9 725.95l-.34.44c-4.4-2.5-6.8-7.22-6.8-11.95 0-5.15 2.43-9.16 6.88-11.8l.25.44c-3.88 3.3-4.74 5.9-4.74 11.27 0 5.17.83 8.32 4.73 11.58M593.95 712.28c0 4.8-1.75 9.58-6.3 9.58-4.75 0-6.28-5.18-6.28-9.75 0-4.92 1.92-9.46 6.4-9.46 3.65 0 6.18 3.93 6.18 9.64m-2.67.14c0-5.8-1.23-9.05-3.68-9.05-2.3 0-3.56 3.28-3.56 8.94s1.22 8.83 3.62 8.83c2.37 0 3.62-3.2 3.62-8.7M595.43 703.1l.33-.46c4.26 2.57 6.8 7.22 6.8 11.95 0 5.14-2.46 9.1-6.88 11.8l-.25-.45c3.95-3.26 4.73-5.88 4.73-11.28 0-5.2-.7-8.4-4.73-11.58M584.68 743.2c0 4.78-1.75 9.57-6.3 9.57-4.75 0-6.28-5.18-6.28-9.75 0-4.92 1.92-9.46 6.4-9.46 3.65 0 6.18 3.92 6.18 9.63m-2.67.13c0-5.8-1.22-9.05-3.67-9.05-2.3 0-3.56 3.3-3.56 8.94 0 5.65 1.22 8.83 3.62 8.83 2.35 0 3.6-3.2 3.6-8.72M587.66 756.3l-.28-.52c1.53-1.03 2.3-2.06 2.3-2.98 0-.2-.16-.36-.38-.36s-.5.1-.8.1c-1.04 0-1.62-.47-1.62-1.4 0-.96.67-1.6 1.67-1.6 1.25 0 2.23.97 2.23 2.42 0 1.67-1.2 3.43-3.12 4.35M603.3 752.38h-7.68v-.42c2.06-.1 2.65-.7 2.65-2.23v-12.5c0-.94-.25-1.36-.84-1.36-.28 0-.75.14-1.25.33l-.75.28v-.4l4.98-2.52.26.08v16.62c0 1.2.56 1.7 2.65 1.7v.42"/><path d="M549.77 760h60.46v60h-60.46z" fill="#fff" fill-opacity="0"/><path d="M561.78 788.63l1.77-2.7c1.03-1.6 2.4-3.32 4.37-3.32 1.26 0 1.93.48 1.93 1.3 0 .76-.5 1.66-1.53 1.66-.87 0-1.07-.35-1.74-.35-1.18 0-1.6.64-2.16 1.5l-2.17 3.35c1.18 2.44 2.1 7.76 3.86 7.76.64 0 1.6-.54 2.4-2.24l.56.4c-.47.6-2.24 4.37-4.52 4.37-1.62 0-2.37-1.62-2.88-3.03l-1.57-4.45-2.5 3.86c-1.26 1.94-2.4 3.63-4.6 3.63-1.42 0-2.05-1-2.05-1.85 0-.63.5-1.46 1.5-1.46 1.02 0 .86.8 1.85.8.47 0 1.5-.4 2.75-2.33l2.56-4-1.3-3.62c-.66-1.88-1.68-3.5-3.85-3.5-.5 0-1.1.08-1.5.24l-.1-.7 5.2-1.3c1.72.93 2.47 2.55 2.94 3.85M579.9 785.95l-.34.44c-4.4-2.5-6.8-7.22-6.8-11.95 0-5.15 2.43-9.16 6.88-11.8l.25.44c-3.88 3.3-4.74 5.9-4.74 11.27 0 5.17.83 8.32 4.73 11.58M591.67 781.47h-7.7v-.42c2.07-.1 2.66-.7 2.66-2.23v-12.5c0-.95-.25-1.36-.84-1.36-.28 0-.76.13-1.26.33l-.75.27v-.4l4.97-2.52.25.08v16.62c0 1.2.56 1.7 2.65 1.7v.42M595.43 763.1l.33-.46c4.26 2.57 6.8 7.22 6.8 11.95 0 5.14-2.46 9.1-6.88 11.8l-.25-.45c3.95-3.26 4.73-5.88 4.73-11.28 0-5.2-.7-8.4-4.73-11.58M584.68 803.2c0 4.78-1.75 9.57-6.3 9.57-4.75 0-6.28-5.18-6.28-9.75 0-4.92 1.92-9.46 6.4-9.46 3.65 0 6.18 3.92 6.18 9.63m-2.67.13c0-5.8-1.22-9.05-3.67-9.05-2.3 0-3.56 3.3-3.56 8.94 0 5.65 1.22 8.83 3.62 8.83 2.35 0 3.6-3.2 3.6-8.72M587.66 816.3l-.28-.52c1.53-1.03 2.3-2.06 2.3-2.98 0-.2-.16-.36-.38-.36s-.5.1-.8.1c-1.04 0-1.62-.47-1.62-1.4 0-.96.67-1.6 1.67-1.6 1.25 0 2.23.97 2.23 2.42 0 1.67-1.2 3.43-3.12 4.35M603.3 812.38h-7.68v-.42c2.06-.1 2.65-.7 2.65-2.23v-12.5c0-.94-.25-1.36-.84-1.36-.28 0-.75.14-1.25.33l-.75.28v-.4l4.98-2.52.26.08v16.62c0 1.2.56 1.7 2.65 1.7v.42"/><path d="M549.77 820h60.46v60h-60.46z" fill="#fff" fill-opacity="0"/><path d="M561.78 848.63l1.77-2.7c1.03-1.6 2.4-3.32 4.37-3.32 1.26 0 1.93.48 1.93 1.3 0 .76-.5 1.66-1.53 1.66-.87 0-1.07-.35-1.74-.35-1.18 0-1.6.64-2.16 1.5l-2.17 3.35c1.18 2.44 2.1 7.76 3.86 7.76.64 0 1.6-.54 2.4-2.24l.56.4c-.47.6-2.24 4.37-4.52 4.37-1.62 0-2.37-1.62-2.88-3.03l-1.57-4.45-2.5 3.86c-1.26 1.94-2.4 3.63-4.6 3.63-1.42 0-2.05-1-2.05-1.85 0-.63.5-1.46 1.5-1.46 1.02 0 .86.8 1.85.8.47 0 1.5-.4 2.75-2.33l2.56-4-1.3-3.62c-.66-1.88-1.68-3.5-3.85-3.5-.5 0-1.1.08-1.5.24l-.1-.7 5.2-1.3c1.72.93 2.47 2.55 2.94 3.85M579.9 845.95l-.34.44c-4.4-2.5-6.8-7.22-6.8-11.95 0-5.15 2.43-9.16 6.88-11.8l.25.44c-3.88 3.3-4.74 5.9-4.74 11.27 0 5.17.83 8.32 4.73 11.58M593.9 837.65l-1.5 3.82h-10.9v-.34l4.96-5.26c2.62-2.76 3.62-4.87 3.62-7.24 0-2.53-1.5-3.92-3.87-3.92-2 0-2.97.9-4.08 3.63l-.6-.14c.6-3.27 2.38-5.56 5.8-5.56 3.15 0 5.15 2.15 5.15 4.9 0 2.2-1.08 4.3-3.56 6.9l-4.58 4.9h6.5c1.18 0 1.77-.3 2.7-1.86M595.43 823.1l.33-.46c4.26 2.57 6.8 7.22 6.8 11.95 0 5.14-2.46 9.1-6.88 11.8l-.25-.45c3.95-3.26 4.73-5.88 4.73-11.28 0-5.2-.7-8.4-4.73-11.58M584.68 863.2c0 4.78-1.75 9.57-6.3 9.57-4.75 0-6.28-5.18-6.28-9.75 0-4.92 1.92-9.46 6.4-9.46 3.65 0 6.18 3.92 6.18 9.63m-2.67.13c0-5.8-1.22-9.05-3.67-9.05-2.3 0-3.56 3.3-3.56 8.94 0 5.65 1.22 8.83 3.62 8.83 2.35 0 3.6-3.2 3.6-8.72M587.66 876.3l-.28-.52c1.53-1.03 2.3-2.06 2.3-2.98 0-.2-.16-.36-.38-.36s-.5.1-.8.1c-1.04 0-1.62-.47-1.62-1.4 0-.96.67-1.6 1.67-1.6 1.25 0 2.23.97 2.23 2.42 0 1.67-1.2 3.43-3.12 4.35M603.3 872.38h-7.68v-.42c2.06-.1 2.65-.7 2.65-2.23v-12.5c0-.94-.25-1.36-.84-1.36-.28 0-.75.14-1.25.33l-.75.28v-.4l4.98-2.52.26.08v16.62c0 1.2.56 1.7 2.65 1.7v.42"/><path d="M549.77 880h60.46v60h-60.46z" fill="#fff" fill-opacity="0"/><path d="M561.78 908.63l1.77-2.7c1.03-1.6 2.4-3.32 4.37-3.32 1.26 0 1.93.48 1.93 1.3 0 .76-.5 1.66-1.53 1.66-.87 0-1.07-.35-1.74-.35-1.18 0-1.6.64-2.16 1.5l-2.17 3.35c1.18 2.44 2.1 7.76 3.86 7.76.64 0 1.6-.54 2.4-2.24l.56.4c-.47.6-2.24 4.37-4.52 4.37-1.62 0-2.37-1.62-2.88-3.03l-1.57-4.45-2.5 3.86c-1.26 1.94-2.4 3.63-4.6 3.63-1.42 0-2.05-1-2.05-1.85 0-.63.5-1.46 1.5-1.46 1.02 0 .86.8 1.85.8.47 0 1.5-.4 2.75-2.33l2.56-4-1.3-3.62c-.66-1.88-1.68-3.5-3.85-3.5-.5 0-1.1.08-1.5.24l-.1-.7 5.2-1.3c1.72.93 2.47 2.55 2.94 3.85M579.9 905.95l-.34.44c-4.4-2.5-6.8-7.22-6.8-11.95 0-5.15 2.43-9.16 6.88-11.8l.25.44c-3.88 3.3-4.74 5.9-4.74 11.27 0 5.17.83 8.32 4.73 11.58M582.4 887.27l-.45-.1c.8-2.66 2.56-4.52 5.46-4.52 2.6 0 4.35 1.53 4.35 3.8 0 1.35-.72 2.74-2.6 3.85 1.24.53 1.74.87 2.32 1.48.78.86 1.23 2.14 1.23 3.6s-.48 2.83-1.28 3.9c-1.34 1.77-3.98 2.58-6.46 2.58-2.03 0-3.12-.6-3.12-1.6 0-.58.5-1 1.14-1 .48 0 .92.17 1.7.73 1.03.72 1.6.85 2.4.85 2.05 0 3.6-1.9 3.6-4.26 0-2.12-.96-3.5-2.88-4.04-.62-.2-1.25-.28-2.84-.28v-.4c1.06-.35 1.78-.66 2.34-1 1.36-.77 2.25-2.03 2.25-3.72 0-1.9-1.17-2.84-3-2.84-1.73 0-3 .9-4.15 2.95M595.43 883.1l.33-.46c4.26 2.57 6.8 7.22 6.8 11.95 0 5.14-2.46 9.1-6.88 11.8l-.25-.45c3.95-3.26 4.73-5.88 4.73-11.28 0-5.2-.7-8.4-4.73-11.58M584.68 923.2c0 4.78-1.75 9.57-6.3 9.57-4.75 0-6.28-5.18-6.28-9.75 0-4.92 1.92-9.46 6.4-9.46 3.65 0 6.18 3.92 6.18 9.63m-2.67.13c0-5.8-1.22-9.05-3.67-9.05-2.3 0-3.56 3.3-3.56 8.94 0 5.65 1.22 8.83 3.62 8.83 2.35 0 3.6-3.2 3.6-8.72M587.66 936.3l-.28-.52c1.53-1.03 2.3-2.06 2.3-2.98 0-.2-.16-.36-.38-.36s-.5.1-.8.1c-1.04 0-1.62-.47-1.62-1.4 0-.96.67-1.6 1.67-1.6 1.25 0 2.23.97 2.23 2.42 0 1.67-1.2 3.43-3.12 4.35M603.3 932.38h-7.68v-.42c2.06-.1 2.65-.7 2.65-2.23v-12.5c0-.94-.25-1.36-.84-1.36-.28 0-.75.14-1.25.33l-.75.28v-.4l4.98-2.52.26.08v16.62c0 1.2.56 1.7 2.65 1.7v.42"/><path d="M1629.77 700h65.2v60h-65.2z" fill="#fff" fill-opacity="0"/><path d="M1641.78 728.63l1.77-2.7c1.03-1.6 2.4-3.32 4.37-3.32 1.26 0 1.93.48 1.93 1.3 0 .76-.5 1.66-1.53 1.66-.87 0-1.07-.35-1.74-.35-1.18 0-1.6.64-2.16 1.5l-2.17 3.35c1.18 2.44 2.1 7.76 3.86 7.76.64 0 1.6-.54 2.4-2.24l.56.4c-.47.6-2.24 4.37-4.52 4.37-1.62 0-2.37-1.62-2.88-3.03l-1.58-4.45-2.48 3.86c-1.26 1.94-2.4 3.63-4.6 3.63-1.42 0-2.05-1-2.05-1.85 0-.63.5-1.46 1.5-1.46 1.02 0 .86.8 1.85.8.47 0 1.5-.4 2.75-2.33l2.56-4-1.3-3.62c-.66-1.88-1.68-3.5-3.85-3.5-.5 0-1.1.08-1.5.24l-.1-.7 5.2-1.3c1.72.93 2.47 2.55 2.94 3.85M1659.9 725.95l-.34.44c-4.4-2.5-6.8-7.22-6.8-11.95 0-5.15 2.43-9.16 6.88-11.8l.25.44c-3.88 3.3-4.74 5.9-4.74 11.27 0 5.17.83 8.32 4.73 11.58M1673.95 712.28c0 4.8-1.75 9.58-6.3 9.58-4.75 0-6.28-5.18-6.28-9.75 0-4.92 1.92-9.46 6.4-9.46 3.65 0 6.18 3.93 6.18 9.64m-2.67.14c0-5.8-1.23-9.05-3.68-9.05-2.3 0-3.56 3.28-3.56 8.94s1.22 8.83 3.62 8.83c2.37 0 3.62-3.2 3.62-8.7M1675.43 703.1l.33-.46c4.26 2.57 6.8 7.22 6.8 11.95 0 5.14-2.46 9.1-6.88 11.8l-.25-.45c3.95-3.26 4.73-5.88 4.73-11.28 0-5.2-.7-8.4-4.73-11.58M1670.08 734.2l-1.28 4.98h-.44c.05-.47.13-1.22.13-1.97 0-1.83-1.62-1.97-2.76-1.97H1663l-3.7 14.98c-.05.26-.13.45-.13.7 0 .6.44 1.03 2.1 1.03h.6l-.1.45h-9.17l.1-.45h.5c2.18 0 2.74-.77 2.96-1.72l3.7-14.97h-2.53c-2.3 0-4.26 1.7-4.76 3.95h-.45l1.28-4.98h16.68M1672.4 756.3l-.3-.52c1.55-1.03 2.32-2.06 2.32-2.98 0-.2-.16-.36-.38-.36-.23 0-.5.1-.8.1-1.04 0-1.63-.47-1.63-1.4 0-.96.68-1.6 1.68-1.6 1.26 0 2.23.97 2.23 2.42 0 1.67-1.2 3.43-3.1 4.35M1690.27 748.57l-1.5 3.8h-10.9v-.32l4.96-5.27c2.62-2.75 3.62-4.87 3.62-7.24 0-2.53-1.5-3.92-3.87-3.92-2 0-2.98.9-4.1 3.62l-.58-.14c.6-3.26 2.37-5.54 5.8-5.54 3.14 0 5.15 2.14 5.15 4.9 0 2.2-1.1 4.3-3.57 6.9l-4.6 4.9h6.52c1.17 0 1.76-.3 2.68-1.86"/><path d="M1629.77 760h65.2v60h-65.2z" fill="#fff" fill-opacity="0"/><path d="M1641.78 788.63l1.77-2.7c1.03-1.6 2.4-3.32 4.37-3.32 1.26 0 1.93.48 1.93 1.3 0 .76-.5 1.66-1.53 1.66-.87 0-1.07-.35-1.74-.35-1.18 0-1.6.64-2.16 1.5l-2.17 3.35c1.18 2.44 2.1 7.76 3.86 7.76.64 0 1.6-.54 2.4-2.24l.56.4c-.47.6-2.24 4.37-4.52 4.37-1.62 0-2.37-1.62-2.88-3.03l-1.58-4.45-2.48 3.86c-1.26 1.94-2.4 3.63-4.6 3.63-1.42 0-2.05-1-2.05-1.85 0-.63.5-1.46 1.5-1.46 1.02 0 .86.8 1.85.8.47 0 1.5-.4 2.75-2.33l2.56-4-1.3-3.62c-.66-1.88-1.68-3.5-3.85-3.5-.5 0-1.1.08-1.5.24l-.1-.7 5.2-1.3c1.72.93 2.47 2.55 2.94 3.85M1659.9 785.95l-.34.44c-4.4-2.5-6.8-7.22-6.8-11.95 0-5.15 2.43-9.16 6.88-11.8l.25.44c-3.88 3.3-4.74 5.9-4.74 11.27 0 5.17.83 8.32 4.73 11.58M1671.67 781.47h-7.7v-.42c2.07-.1 2.66-.7 2.66-2.23v-12.5c0-.95-.25-1.36-.84-1.36-.28 0-.76.13-1.26.33l-.75.27v-.4l4.97-2.52.25.08v16.62c0 1.2.56 1.7 2.65 1.7v.42M1675.43 763.1l.33-.46c4.26 2.57 6.8 7.22 6.8 11.95 0 5.14-2.46 9.1-6.88 11.8l-.25-.45c3.95-3.26 4.73-5.88 4.73-11.28 0-5.2-.7-8.4-4.73-11.58M1670.08 794.2l-1.28 4.98h-.44c.05-.47.13-1.22.13-1.97 0-1.83-1.62-1.97-2.76-1.97H1663l-3.7 14.98c-.05.26-.13.45-.13.7 0 .6.44 1.03 2.1 1.03h.6l-.1.45h-9.17l.1-.45h.5c2.18 0 2.74-.77 2.96-1.72l3.7-14.97h-2.53c-2.3 0-4.26 1.7-4.76 3.95h-.45l1.28-4.98h16.68M1672.4 816.3l-.3-.52c1.55-1.03 2.32-2.06 2.32-2.98 0-.2-.16-.36-.38-.36-.23 0-.5.1-.8.1-1.04 0-1.63-.47-1.63-1.4 0-.96.68-1.6 1.68-1.6 1.26 0 2.23.97 2.23 2.42 0 1.67-1.2 3.43-3.1 4.35M1690.27 808.57l-1.5 3.8h-10.9v-.32l4.96-5.27c2.62-2.75 3.62-4.87 3.62-7.24 0-2.53-1.5-3.92-3.87-3.92-2 0-2.98.9-4.1 3.62l-.58-.14c.6-3.26 2.37-5.54 5.8-5.54 3.14 0 5.15 2.14 5.15 4.9 0 2.2-1.1 4.3-3.57 6.9l-4.6 4.9h6.52c1.17 0 1.76-.3 2.68-1.86"/><path d="M1629.77 820h65.2v60h-65.2z" fill="#fff" fill-opacity="0"/><path d="M1641.78 848.63l1.77-2.7c1.03-1.6 2.4-3.32 4.37-3.32 1.26 0 1.93.48 1.93 1.3 0 .76-.5 1.66-1.53 1.66-.87 0-1.07-.35-1.74-.35-1.18 0-1.6.64-2.16 1.5l-2.17 3.35c1.18 2.44 2.1 7.76 3.86 7.76.64 0 1.6-.54 2.4-2.24l.56.4c-.47.6-2.24 4.37-4.52 4.37-1.62 0-2.37-1.62-2.88-3.03l-1.58-4.45-2.48 3.86c-1.26 1.94-2.4 3.63-4.6 3.63-1.42 0-2.05-1-2.05-1.85 0-.63.5-1.46 1.5-1.46 1.02 0 .86.8 1.85.8.47 0 1.5-.4 2.75-2.33l2.56-4-1.3-3.62c-.66-1.88-1.68-3.5-3.85-3.5-.5 0-1.1.08-1.5.24l-.1-.7 5.2-1.3c1.72.93 2.47 2.55 2.94 3.85M1659.9 845.95l-.34.44c-4.4-2.5-6.8-7.22-6.8-11.95 0-5.15 2.43-9.16 6.88-11.8l.25.44c-3.88 3.3-4.74 5.9-4.74 11.27 0 5.17.83 8.32 4.73 11.58M1673.9 837.65l-1.5 3.82h-10.9v-.34l4.96-5.26c2.62-2.76 3.62-4.87 3.62-7.24 0-2.53-1.5-3.92-3.87-3.92-2 0-2.97.9-4.08 3.63l-.6-.14c.6-3.27 2.38-5.56 5.8-5.56 3.15 0 5.15 2.15 5.15 4.9 0 2.2-1.08 4.3-3.56 6.9l-4.58 4.9h6.5c1.18 0 1.77-.3 2.7-1.86M1675.43 823.1l.33-.46c4.26 2.57 6.8 7.22 6.8 11.95 0 5.14-2.46 9.1-6.88 11.8l-.25-.45c3.95-3.26 4.73-5.88 4.73-11.28 0-5.2-.7-8.4-4.73-11.58M1670.08 854.2l-1.28 4.98h-.44c.05-.47.13-1.22.13-1.97 0-1.83-1.62-1.97-2.76-1.97H1663l-3.7 14.98c-.05.26-.13.45-.13.7 0 .6.44 1.03 2.1 1.03h.6l-.1.45h-9.17l.1-.45h.5c2.18 0 2.74-.77 2.96-1.72l3.7-14.97h-2.53c-2.3 0-4.26 1.7-4.76 3.95h-.45l1.28-4.98h16.68M1672.4 876.3l-.3-.52c1.55-1.03 2.32-2.06 2.32-2.98 0-.2-.16-.36-.38-.36-.23 0-.5.1-.8.1-1.04 0-1.63-.47-1.63-1.4 0-.96.68-1.6 1.68-1.6 1.26 0 2.23.97 2.23 2.42 0 1.67-1.2 3.43-3.1 4.35M1690.27 868.57l-1.5 3.8h-10.9v-.32l4.96-5.27c2.62-2.75 3.62-4.87 3.62-7.24 0-2.53-1.5-3.92-3.87-3.92-2 0-2.98.9-4.1 3.62l-.58-.14c.6-3.26 2.37-5.54 5.8-5.54 3.14 0 5.15 2.14 5.15 4.9 0 2.2-1.1 4.3-3.57 6.9l-4.6 4.9h6.52c1.17 0 1.76-.3 2.68-1.86"/><path d="M1629.77 880h65.2v60h-65.2z" fill="#fff" fill-opacity="0"/><path d="M1641.78 908.63l1.77-2.7c1.03-1.6 2.4-3.32 4.37-3.32 1.26 0 1.93.48 1.93 1.3 0 .76-.5 1.66-1.53 1.66-.87 0-1.07-.35-1.74-.35-1.18 0-1.6.64-2.16 1.5l-2.17 3.35c1.18 2.44 2.1 7.76 3.86 7.76.64 0 1.6-.54 2.4-2.24l.56.4c-.47.6-2.24 4.37-4.52 4.37-1.62 0-2.37-1.62-2.88-3.03l-1.58-4.45-2.48 3.86c-1.26 1.94-2.4 3.63-4.6 3.63-1.42 0-2.05-1-2.05-1.85 0-.63.5-1.46 1.5-1.46 1.02 0 .86.8 1.85.8.47 0 1.5-.4 2.75-2.33l2.56-4-1.3-3.62c-.66-1.88-1.68-3.5-3.85-3.5-.5 0-1.1.08-1.5.24l-.1-.7 5.2-1.3c1.72.93 2.47 2.55 2.94 3.85M1659.9 905.95l-.34.44c-4.4-2.5-6.8-7.22-6.8-11.95 0-5.15 2.43-9.16 6.88-11.8l.25.44c-3.88 3.3-4.74 5.9-4.74 11.27 0 5.17.83 8.32 4.73 11.58M1662.4 887.27l-.45-.1c.8-2.66 2.56-4.52 5.46-4.52 2.6 0 4.35 1.53 4.35 3.8 0 1.35-.72 2.74-2.6 3.85 1.24.53 1.74.87 2.32 1.48.78.86 1.23 2.14 1.23 3.6s-.48 2.83-1.28 3.9c-1.34 1.77-3.98 2.58-6.46 2.58-2.03 0-3.12-.6-3.12-1.6 0-.58.5-1 1.14-1 .47 0 .92.17 1.7.73 1.03.72 1.6.85 2.4.85 2.05 0 3.6-1.9 3.6-4.26 0-2.12-.96-3.5-2.88-4.04-.62-.2-1.25-.28-2.84-.28v-.4c1.06-.35 1.78-.66 2.34-1 1.36-.77 2.25-2.03 2.25-3.72 0-1.9-1.17-2.84-3-2.84-1.73 0-3 .9-4.15 2.95M1675.43 883.1l.33-.46c4.26 2.57 6.8 7.22 6.8 11.95 0 5.14-2.46 9.1-6.88 11.8l-.25-.45c3.95-3.26 4.73-5.88 4.73-11.28 0-5.2-.7-8.4-4.73-11.58M1670.08 914.2l-1.28 4.98h-.44c.05-.47.13-1.22.13-1.97 0-1.83-1.62-1.97-2.76-1.97H1663l-3.7 14.98c-.05.26-.13.45-.13.7 0 .6.44 1.03 2.1 1.03h.6l-.1.45h-9.17l.1-.45h.5c2.18 0 2.74-.77 2.96-1.72l3.7-14.97h-2.53c-2.3 0-4.26 1.7-4.76 3.95h-.45l1.28-4.98h16.68M1672.4 936.3l-.3-.52c1.55-1.03 2.32-2.06 2.32-2.98 0-.2-.16-.36-.38-.36-.23 0-.5.1-.8.1-1.04 0-1.63-.47-1.63-1.4 0-.96.68-1.6 1.68-1.6 1.26 0 2.23.97 2.23 2.42 0 1.67-1.2 3.43-3.1 4.35M1690.27 928.57l-1.5 3.8h-10.9v-.32l4.96-5.27c2.62-2.75 3.62-4.87 3.62-7.24 0-2.53-1.5-3.92-3.87-3.92-2 0-2.98.9-4.1 3.62l-.58-.14c.6-3.26 2.37-5.54 5.8-5.54 3.14 0 5.15 2.14 5.15 4.9 0 2.2-1.1 4.3-3.57 6.9l-4.6 4.9h6.52c1.17 0 1.76-.3 2.68-1.86"/><path d="M1040 760h65.2v60H1040z" fill="#fff" fill-opacity="0"/><path d="M1052 788.63l1.78-2.7c1.03-1.6 2.4-3.32 4.37-3.32 1.26 0 1.93.48 1.93 1.3 0 .76-.5 1.66-1.53 1.66-.87 0-1.07-.35-1.73-.35-1.2 0-1.62.64-2.17 1.5l-2.17 3.35c1.18 2.44 2.1 7.76 3.86 7.76.63 0 1.58-.54 2.4-2.24l.56.4c-.48.6-2.25 4.37-4.53 4.37-1.62 0-2.37-1.62-2.88-3.03l-1.58-4.45-2.48 3.86c-1.26 1.94-2.4 3.63-4.6 3.63-1.43 0-2.06-1-2.06-1.85 0-.63.5-1.46 1.5-1.46 1.02 0 .86.8 1.85.8.47 0 1.5-.4 2.76-2.33l2.55-4-1.3-3.62c-.67-1.88-1.7-3.5-3.86-3.5-.53 0-1.12.08-1.5.24l-.13-.7 5.2-1.3c1.73.93 2.48 2.55 2.95 3.85M1070.12 785.95l-.33.44c-4.4-2.5-6.8-7.22-6.8-11.95 0-5.15 2.42-9.16 6.87-11.8l.25.44c-3.87 3.3-4.73 5.9-4.73 11.27 0 5.17.82 8.32 4.72 11.58M1081.9 781.47h-7.68v-.42c2.06-.1 2.64-.7 2.64-2.23v-12.5c0-.95-.25-1.36-.83-1.36-.28 0-.76.13-1.26.33l-.75.27v-.4l5-2.52.24.08v16.62c0 1.2.55 1.7 2.64 1.7v.42M1085.66 763.1l.33-.46c4.25 2.57 6.8 7.22 6.8 11.95 0 5.14-2.46 9.1-6.9 11.8l-.24-.45c3.95-3.26 4.73-5.88 4.73-11.28 0-5.2-.7-8.4-4.74-11.58M1080.3 794.2l-1.27 4.98h-.44c.04-.47.13-1.22.13-1.97 0-1.83-1.62-1.97-2.76-1.97h-2.73l-3.7 14.98c-.06.26-.14.45-.14.7 0 .6.44 1.03 2.12 1.03h.58l-.1.45h-9.17l.1-.45h.5c2.18 0 2.74-.77 2.96-1.72l3.7-14.97h-2.54c-2.3 0-4.26 1.7-4.76 3.95h-.44l1.28-4.98h16.67M1082.62 816.3l-.27-.52c1.53-1.03 2.3-2.06 2.3-2.98 0-.2-.16-.36-.38-.36-.23 0-.5.1-.8.1-1.04 0-1.63-.47-1.63-1.4 0-.96.67-1.6 1.68-1.6 1.25 0 2.22.97 2.22 2.42 0 1.67-1.2 3.43-3.12 4.35M1098.27 812.38h-7.68v-.42c2.05-.1 2.63-.7 2.63-2.23v-12.5c0-.94-.25-1.36-.83-1.36-.28 0-.76.14-1.26.33l-.75.28v-.4l4.98-2.52.25.08v16.62c0 1.2.55 1.7 2.64 1.7v.42"/><path d="M1040 820h65.2v60H1040z" fill="#fff" fill-opacity="0"/><path d="M1052 848.63l1.78-2.7c1.03-1.6 2.4-3.32 4.37-3.32 1.26 0 1.93.48 1.93 1.3 0 .76-.5 1.66-1.53 1.66-.87 0-1.07-.35-1.73-.35-1.2 0-1.62.64-2.17 1.5l-2.17 3.35c1.18 2.44 2.1 7.76 3.86 7.76.63 0 1.58-.54 2.4-2.24l.56.4c-.48.6-2.25 4.37-4.53 4.37-1.62 0-2.37-1.62-2.88-3.03l-1.58-4.45-2.48 3.86c-1.26 1.94-2.4 3.63-4.6 3.63-1.43 0-2.06-1-2.06-1.85 0-.63.5-1.46 1.5-1.46 1.02 0 .86.8 1.85.8.47 0 1.5-.4 2.76-2.33l2.55-4-1.3-3.62c-.67-1.88-1.7-3.5-3.86-3.5-.53 0-1.12.08-1.5.24l-.13-.7 5.2-1.3c1.73.93 2.48 2.55 2.95 3.85M1070.12 845.95l-.33.44c-4.4-2.5-6.8-7.22-6.8-11.95 0-5.15 2.42-9.16 6.87-11.8l.25.44c-3.87 3.3-4.73 5.9-4.73 11.27 0 5.17.82 8.32 4.72 11.58M1084.13 837.65l-1.5 3.82h-10.9v-.34l4.96-5.26c2.6-2.76 3.6-4.87 3.6-7.24 0-2.53-1.5-3.92-3.86-3.92-2 0-2.98.9-4.1 3.63l-.57-.14c.58-3.27 2.36-5.56 5.8-5.56 3.13 0 5.14 2.15 5.14 4.9 0 2.2-1.08 4.3-3.56 6.9l-4.6 4.9h6.53c1.16 0 1.75-.3 2.67-1.86M1085.66 823.1l.33-.46c4.25 2.57 6.8 7.22 6.8 11.95 0 5.14-2.46 9.1-6.9 11.8l-.24-.45c3.95-3.26 4.73-5.88 4.73-11.28 0-5.2-.7-8.4-4.74-11.58M1080.3 854.2l-1.27 4.98h-.44c.04-.47.13-1.22.13-1.97 0-1.83-1.62-1.97-2.76-1.97h-2.73l-3.7 14.98c-.06.26-.14.45-.14.7 0 .6.44 1.03 2.12 1.03h.58l-.1.45h-9.17l.1-.45h.5c2.18 0 2.74-.77 2.96-1.72l3.7-14.97h-2.54c-2.3 0-4.26 1.7-4.76 3.95h-.44l1.28-4.98h16.67M1082.62 876.3l-.27-.52c1.53-1.03 2.3-2.06 2.3-2.98 0-.2-.16-.36-.38-.36-.23 0-.5.1-.8.1-1.04 0-1.63-.47-1.63-1.4 0-.96.67-1.6 1.68-1.6 1.25 0 2.22.97 2.22 2.42 0 1.67-1.2 3.43-3.12 4.35M1098.27 872.38h-7.68v-.42c2.05-.1 2.63-.7 2.63-2.23v-12.5c0-.94-.25-1.36-.83-1.36-.28 0-.76.14-1.26.33l-.75.28v-.4l4.98-2.52.25.08v16.62c0 1.2.55 1.7 2.64 1.7v.42"/><path d="M1040 880h65.2v60H1040z" fill="#fff" fill-opacity="0"/><path d="M1052 908.63l1.78-2.7c1.03-1.6 2.4-3.32 4.37-3.32 1.26 0 1.93.48 1.93 1.3 0 .76-.5 1.66-1.53 1.66-.87 0-1.07-.35-1.73-.35-1.2 0-1.62.64-2.17 1.5l-2.17 3.35c1.18 2.44 2.1 7.76 3.86 7.76.63 0 1.58-.54 2.4-2.24l.56.4c-.48.6-2.25 4.37-4.53 4.37-1.62 0-2.37-1.62-2.88-3.03l-1.58-4.45-2.48 3.86c-1.26 1.94-2.4 3.63-4.6 3.63-1.43 0-2.06-1-2.06-1.85 0-.63.5-1.46 1.5-1.46 1.02 0 .86.8 1.85.8.47 0 1.5-.4 2.76-2.33l2.55-4-1.3-3.62c-.67-1.88-1.7-3.5-3.86-3.5-.53 0-1.12.08-1.5.24l-.13-.7 5.2-1.3c1.73.93 2.48 2.55 2.95 3.85M1070.12 905.95l-.33.44c-4.4-2.5-6.8-7.22-6.8-11.95 0-5.15 2.42-9.16 6.87-11.8l.25.44c-3.87 3.3-4.73 5.9-4.73 11.27 0 5.17.82 8.32 4.72 11.58M1072.63 887.27l-.45-.1c.8-2.66 2.56-4.52 5.46-4.52 2.6 0 4.34 1.53 4.34 3.8 0 1.35-.72 2.74-2.6 3.85 1.24.53 1.74.87 2.32 1.48.78.86 1.23 2.14 1.23 3.6s-.47 2.83-1.28 3.9c-1.34 1.77-3.98 2.58-6.46 2.58-2.04 0-3.13-.6-3.13-1.6 0-.58.5-1 1.14-1 .5 0 .93.17 1.7.73 1.04.72 1.63.85 2.4.85 2.07 0 3.63-1.9 3.63-4.26 0-2.12-.98-3.5-2.9-4.04-.6-.2-1.25-.28-2.84-.28v-.4c1.05-.35 1.77-.66 2.33-1 1.36-.77 2.25-2.03 2.25-3.72 0-1.9-1.16-2.84-3-2.84-1.73 0-3 .9-4.15 2.95M1085.66 883.1l.33-.46c4.25 2.57 6.8 7.22 6.8 11.95 0 5.14-2.46 9.1-6.9 11.8l-.24-.45c3.95-3.26 4.73-5.88 4.73-11.28 0-5.2-.7-8.4-4.74-11.58M1080.3 914.2l-1.27 4.98h-.44c.04-.47.13-1.22.13-1.97 0-1.83-1.62-1.97-2.76-1.97h-2.73l-3.7 14.98c-.06.26-.14.45-.14.7 0 .6.44 1.03 2.12 1.03h.58l-.1.45h-9.17l.1-.45h.5c2.18 0 2.74-.77 2.96-1.72l3.7-14.97h-2.54c-2.3 0-4.26 1.7-4.76 3.95h-.44l1.28-4.98h16.67M1082.62 936.3l-.27-.52c1.53-1.03 2.3-2.06 2.3-2.98 0-.2-.16-.36-.38-.36-.23 0-.5.1-.8.1-1.04 0-1.63-.47-1.63-1.4 0-.96.67-1.6 1.68-1.6 1.25 0 2.22.97 2.22 2.42 0 1.67-1.2 3.43-3.12 4.35M1098.27 932.38h-7.68v-.42c2.05-.1 2.63-.7 2.63-2.23v-12.5c0-.94-.25-1.36-.83-1.36-.28 0-.76.14-1.26.33l-.75.28v-.4l4.98-2.52.25.08v16.62c0 1.2.55 1.7 2.64 1.7v.42"/><path d="M1139.54 760H1200v60h-60.46z" fill="#fff" fill-opacity="0"/><path d="M1151.55 788.63l1.77-2.7c1.02-1.6 2.4-3.32 4.37-3.32 1.25 0 1.92.48 1.92 1.3 0 .76-.5 1.66-1.54 1.66-.86 0-1.06-.35-1.73-.35-1.18 0-1.6.64-2.16 1.5l-2.18 3.35c1.18 2.44 2.1 7.76 3.86 7.76.63 0 1.57-.54 2.4-2.24l.55.4c-.47.6-2.24 4.37-4.53 4.37-1.6 0-2.36-1.62-2.87-3.03l-1.58-4.45-2.48 3.86c-1.26 1.94-2.4 3.63-4.6 3.63-1.42 0-2.05-1-2.05-1.85 0-.63.5-1.46 1.5-1.46 1.02 0 .86.8 1.84.8.48 0 1.5-.4 2.76-2.33l2.56-4-1.3-3.62c-.67-1.88-1.7-3.5-3.86-3.5-.5 0-1.1.08-1.5.24l-.1-.7 5.2-1.3c1.72.93 2.47 2.55 2.94 3.85M1169.66 785.95l-.34.44c-4.4-2.5-6.8-7.22-6.8-11.95 0-5.15 2.43-9.16 6.9-11.8l.24.44c-3.87 3.3-4.74 5.9-4.74 11.27 0 5.17.84 8.32 4.74 11.58M1181.44 781.47h-7.7v-.42c2.07-.1 2.66-.7 2.66-2.23v-12.5c0-.95-.25-1.36-.84-1.36-.28 0-.75.13-1.25.33l-.74.27v-.4l4.98-2.52.25.08v16.62c0 1.2.55 1.7 2.64 1.7v.42M1185.2 763.1l.33-.46c4.26 2.57 6.8 7.22 6.8 11.95 0 5.14-2.46 9.1-6.88 11.8l-.26-.45c3.95-3.26 4.73-5.88 4.73-11.28 0-5.2-.7-8.4-4.74-11.58M1174.45 803.2c0 4.78-1.76 9.57-6.3 9.57-4.76 0-6.3-5.18-6.3-9.75 0-4.92 1.93-9.46 6.42-9.46 3.64 0 6.18 3.92 6.18 9.63m-2.68.13c0-5.8-1.22-9.05-3.67-9.05-2.3 0-3.56 3.3-3.56 8.94 0 5.65 1.22 8.83 3.62 8.83 2.36 0 3.6-3.2 3.6-8.72M1177.43 816.3l-.28-.52c1.53-1.03 2.3-2.06 2.3-2.98 0-.2-.16-.36-.38-.36s-.5.1-.8.1c-1.04 0-1.62-.47-1.62-1.4 0-.96.66-1.6 1.67-1.6 1.25 0 2.23.97 2.23 2.42 0 1.67-1.2 3.43-3.12 4.35M1195.3 808.57l-1.5 3.8h-10.9v-.32l4.97-5.27c2.6-2.75 3.62-4.87 3.62-7.24 0-2.53-1.52-3.92-3.88-3.92-2 0-2.98.9-4.1 3.62l-.58-.14c.58-3.26 2.37-5.54 5.8-5.54 3.14 0 5.14 2.14 5.14 4.9 0 2.2-1.1 4.3-3.56 6.9l-4.6 4.9h6.52c1.17 0 1.75-.3 2.67-1.86"/><path d="M1139.54 820H1200v60h-60.46z" fill="#fff" fill-opacity="0"/><path d="M1151.55 848.63l1.77-2.7c1.02-1.6 2.4-3.32 4.37-3.32 1.25 0 1.92.48 1.92 1.3 0 .76-.5 1.66-1.54 1.66-.86 0-1.06-.35-1.73-.35-1.18 0-1.6.64-2.16 1.5l-2.18 3.35c1.18 2.44 2.1 7.76 3.86 7.76.63 0 1.57-.54 2.4-2.24l.55.4c-.47.6-2.24 4.37-4.53 4.37-1.6 0-2.36-1.62-2.87-3.03l-1.58-4.45-2.48 3.86c-1.26 1.94-2.4 3.63-4.6 3.63-1.42 0-2.05-1-2.05-1.85 0-.63.5-1.46 1.5-1.46 1.02 0 .86.8 1.84.8.48 0 1.5-.4 2.76-2.33l2.56-4-1.3-3.62c-.67-1.88-1.7-3.5-3.86-3.5-.5 0-1.1.08-1.5.24l-.1-.7 5.2-1.3c1.72.93 2.47 2.55 2.94 3.85M1169.66 845.95l-.34.44c-4.4-2.5-6.8-7.22-6.8-11.95 0-5.15 2.43-9.16 6.9-11.8l.24.44c-3.87 3.3-4.74 5.9-4.74 11.27 0 5.17.84 8.32 4.74 11.58M1183.66 837.65l-1.5 3.82h-10.9v-.34l4.97-5.26c2.62-2.76 3.62-4.87 3.62-7.24 0-2.53-1.5-3.92-3.87-3.92-2 0-2.98.9-4.1 3.63l-.58-.14c.6-3.27 2.37-5.56 5.8-5.56 3.14 0 5.14 2.15 5.14 4.9 0 2.2-1.08 4.3-3.56 6.9l-4.6 4.9h6.52c1.17 0 1.75-.3 2.67-1.86M1185.2 823.1l.33-.46c4.26 2.57 6.8 7.22 6.8 11.95 0 5.14-2.46 9.1-6.88 11.8l-.26-.45c3.95-3.26 4.73-5.88 4.73-11.28 0-5.2-.7-8.4-4.74-11.58M1174.45 863.2c0 4.78-1.76 9.57-6.3 9.57-4.76 0-6.3-5.18-6.3-9.75 0-4.92 1.93-9.46 6.42-9.46 3.64 0 6.18 3.92 6.18 9.63m-2.68.13c0-5.8-1.22-9.05-3.67-9.05-2.3 0-3.56 3.3-3.56 8.94 0 5.65 1.22 8.83 3.62 8.83 2.36 0 3.6-3.2 3.6-8.72M1177.43 876.3l-.28-.52c1.53-1.03 2.3-2.06 2.3-2.98 0-.2-.16-.36-.38-.36s-.5.1-.8.1c-1.04 0-1.62-.47-1.62-1.4 0-.96.66-1.6 1.67-1.6 1.25 0 2.23.97 2.23 2.42 0 1.67-1.2 3.43-3.12 4.35M1195.3 868.57l-1.5 3.8h-10.9v-.32l4.97-5.27c2.6-2.75 3.62-4.87 3.62-7.24 0-2.53-1.52-3.92-3.88-3.92-2 0-2.98.9-4.1 3.62l-.58-.14c.58-3.26 2.37-5.54 5.8-5.54 3.14 0 5.14 2.14 5.14 4.9 0 2.2-1.1 4.3-3.56 6.9l-4.6 4.9h6.52c1.17 0 1.75-.3 2.67-1.86"/><path d="M1139.54 880H1200v60h-60.46z" fill="#fff" fill-opacity="0"/><path d="M1151.55 908.63l1.77-2.7c1.02-1.6 2.4-3.32 4.37-3.32 1.25 0 1.92.48 1.92 1.3 0 .76-.5 1.66-1.54 1.66-.86 0-1.06-.35-1.73-.35-1.18 0-1.6.64-2.16 1.5l-2.18 3.35c1.18 2.44 2.1 7.76 3.86 7.76.63 0 1.57-.54 2.4-2.24l.55.4c-.47.6-2.24 4.37-4.53 4.37-1.6 0-2.36-1.62-2.87-3.03l-1.58-4.45-2.48 3.86c-1.26 1.94-2.4 3.63-4.6 3.63-1.42 0-2.05-1-2.05-1.85 0-.63.5-1.46 1.5-1.46 1.02 0 .86.8 1.84.8.48 0 1.5-.4 2.76-2.33l2.56-4-1.3-3.62c-.67-1.88-1.7-3.5-3.86-3.5-.5 0-1.1.08-1.5.24l-.1-.7 5.2-1.3c1.72.93 2.47 2.55 2.94 3.85M1169.66 905.95l-.34.44c-4.4-2.5-6.8-7.22-6.8-11.95 0-5.15 2.43-9.16 6.9-11.8l.24.44c-3.87 3.3-4.74 5.9-4.74 11.27 0 5.17.84 8.32 4.74 11.58M1172.16 887.27l-.44-.1c.8-2.66 2.56-4.52 5.46-4.52 2.6 0 4.34 1.53 4.34 3.8 0 1.35-.72 2.74-2.6 3.85 1.23.53 1.74.87 2.32 1.48.78.86 1.23 2.14 1.23 3.6s-.48 2.83-1.3 3.9c-1.32 1.77-3.97 2.58-6.44 2.58-2.04 0-3.12-.6-3.12-1.6 0-.58.5-1 1.15-1 .47 0 .92.17 1.7.73 1.03.72 1.6.85 2.4.85 2.05 0 3.6-1.9 3.6-4.26 0-2.12-.96-3.5-2.88-4.04-.62-.2-1.26-.28-2.84-.28v-.4c1.05-.35 1.78-.66 2.33-1 1.37-.77 2.26-2.03 2.26-3.72 0-1.9-1.17-2.84-3-2.84-1.73 0-3 .9-4.16 2.95M1185.2 883.1l.33-.46c4.26 2.57 6.8 7.22 6.8 11.95 0 5.14-2.46 9.1-6.88 11.8l-.26-.45c3.95-3.26 4.73-5.88 4.73-11.28 0-5.2-.7-8.4-4.74-11.58M1174.45 923.2c0 4.78-1.76 9.57-6.3 9.57-4.76 0-6.3-5.18-6.3-9.75 0-4.92 1.93-9.46 6.42-9.46 3.64 0 6.18 3.92 6.18 9.63m-2.68.13c0-5.8-1.22-9.05-3.67-9.05-2.3 0-3.56 3.3-3.56 8.94 0 5.65 1.22 8.83 3.62 8.83 2.36 0 3.6-3.2 3.6-8.72M1177.43 936.3l-.28-.52c1.53-1.03 2.3-2.06 2.3-2.98 0-.2-.16-.36-.38-.36s-.5.1-.8.1c-1.04 0-1.62-.47-1.62-1.4 0-.96.66-1.6 1.67-1.6 1.25 0 2.23.97 2.23 2.42 0 1.67-1.2 3.43-3.12 4.35M1195.3 928.57l-1.5 3.8h-10.9v-.32l4.97-5.27c2.6-2.75 3.62-4.87 3.62-7.24 0-2.53-1.52-3.92-3.88-3.92-2 0-2.98.9-4.1 3.62l-.58-.14c.58-3.26 2.37-5.54 5.8-5.54 3.14 0 5.14 2.14 5.14 4.9 0 2.2-1.1 4.3-3.56 6.9l-4.6 4.9h6.52c1.17 0 1.75-.3 2.67-1.86"/><path d="M1040 690h65.2v60H1040z" fill="#fff" fill-opacity="0"/><path d="M1052 718.63l1.78-2.7c1.03-1.6 2.4-3.32 4.37-3.32 1.26 0 1.93.48 1.93 1.3 0 .76-.5 1.66-1.53 1.66-.87 0-1.07-.35-1.73-.35-1.2 0-1.62.64-2.17 1.5l-2.17 3.35c1.18 2.44 2.1 7.76 3.86 7.76.63 0 1.58-.54 2.4-2.24l.56.4c-.48.6-2.25 4.37-4.53 4.37-1.62 0-2.37-1.62-2.88-3.03l-1.58-4.45-2.48 3.86c-1.26 1.94-2.4 3.63-4.6 3.63-1.43 0-2.06-1-2.06-1.85 0-.63.5-1.46 1.5-1.46 1.02 0 .86.8 1.85.8.47 0 1.5-.4 2.76-2.33l2.55-4-1.3-3.62c-.67-1.88-1.7-3.5-3.86-3.5-.53 0-1.12.08-1.5.24l-.13-.7 5.2-1.3c1.73.93 2.48 2.55 2.95 3.85M1070.12 715.95l-.33.44c-4.4-2.5-6.8-7.22-6.8-11.95 0-5.15 2.42-9.16 6.87-11.8l.25.44c-3.87 3.3-4.73 5.9-4.73 11.27 0 5.17.82 8.32 4.72 11.58M1084.18 702.28c0 4.8-1.75 9.58-6.3 9.58-4.75 0-6.28-5.18-6.28-9.75 0-4.92 1.92-9.46 6.4-9.46 3.65 0 6.18 3.93 6.18 9.64m-2.67.14c0-5.8-1.2-9.05-3.66-9.05-2.3 0-3.57 3.28-3.57 8.94s1.23 8.83 3.62 8.83c2.36 0 3.6-3.2 3.6-8.7M1085.66 693.1l.33-.46c4.25 2.57 6.8 7.22 6.8 11.95 0 5.14-2.46 9.1-6.9 11.8l-.24-.45c3.95-3.26 4.73-5.88 4.73-11.28 0-5.2-.7-8.4-4.74-11.58M1080.3 724.2l-1.27 4.98h-.44c.04-.47.13-1.22.13-1.97 0-1.83-1.62-1.97-2.76-1.97h-2.73l-3.7 14.98c-.06.26-.14.45-.14.7 0 .6.44 1.03 2.12 1.03h.58l-.1.45h-9.17l.1-.45h.5c2.18 0 2.74-.77 2.96-1.72l3.7-14.97h-2.54c-2.3 0-4.26 1.7-4.76 3.95h-.44l1.28-4.98h16.67M1082.62 746.3l-.27-.52c1.53-1.03 2.3-2.06 2.3-2.98 0-.2-.16-.36-.38-.36-.23 0-.5.1-.8.1-1.04 0-1.63-.47-1.63-1.4 0-.96.67-1.6 1.68-1.6 1.25 0 2.22.97 2.22 2.42 0 1.67-1.2 3.43-3.12 4.35M1098.27 742.38h-7.68v-.42c2.05-.1 2.63-.7 2.63-2.23v-12.5c0-.94-.25-1.36-.83-1.36-.28 0-.76.14-1.26.33l-.75.28v-.4l4.98-2.52.25.08v16.62c0 1.2.55 1.7 2.64 1.7v.42"/><path d="M1139.54 690H1200v60h-60.46z" fill="#fff" fill-opacity="0"/><path d="M1151.55 718.63l1.77-2.7c1.02-1.6 2.4-3.32 4.37-3.32 1.25 0 1.92.48 1.92 1.3 0 .76-.5 1.66-1.54 1.66-.86 0-1.06-.35-1.73-.35-1.18 0-1.6.64-2.16 1.5l-2.18 3.35c1.18 2.44 2.1 7.76 3.86 7.76.63 0 1.57-.54 2.4-2.24l.55.4c-.47.6-2.24 4.37-4.53 4.37-1.6 0-2.36-1.62-2.87-3.03l-1.58-4.45-2.48 3.86c-1.26 1.94-2.4 3.63-4.6 3.63-1.42 0-2.05-1-2.05-1.85 0-.63.5-1.46 1.5-1.46 1.02 0 .86.8 1.84.8.48 0 1.5-.4 2.76-2.33l2.56-4-1.3-3.62c-.67-1.88-1.7-3.5-3.86-3.5-.5 0-1.1.08-1.5.24l-.1-.7 5.2-1.3c1.72.93 2.47 2.55 2.94 3.85M1169.66 715.95l-.34.44c-4.4-2.5-6.8-7.22-6.8-11.95 0-5.15 2.43-9.16 6.9-11.8l.24.44c-3.87 3.3-4.74 5.9-4.74 11.27 0 5.17.84 8.32 4.74 11.58M1183.72 702.28c0 4.8-1.76 9.58-6.3 9.58-4.76 0-6.3-5.18-6.3-9.75 0-4.92 1.94-9.46 6.42-9.46 3.64 0 6.18 3.93 6.18 9.64m-2.67.14c0-5.8-1.23-9.05-3.68-9.05-2.3 0-3.56 3.28-3.56 8.94s1.23 8.83 3.63 8.83c2.36 0 3.62-3.2 3.62-8.7M1185.2 693.1l.33-.46c4.26 2.57 6.8 7.22 6.8 11.95 0 5.14-2.46 9.1-6.88 11.8l-.26-.45c3.95-3.26 4.73-5.88 4.73-11.28 0-5.2-.7-8.4-4.74-11.58M1174.45 733.2c0 4.78-1.76 9.57-6.3 9.57-4.76 0-6.3-5.18-6.3-9.75 0-4.92 1.93-9.46 6.42-9.46 3.64 0 6.18 3.92 6.18 9.63m-2.68.13c0-5.8-1.22-9.05-3.67-9.05-2.3 0-3.56 3.3-3.56 8.94 0 5.65 1.22 8.83 3.62 8.83 2.36 0 3.6-3.2 3.6-8.72M1177.43 746.3l-.28-.52c1.53-1.03 2.3-2.06 2.3-2.98 0-.2-.16-.36-.38-.36s-.5.1-.8.1c-1.04 0-1.62-.47-1.62-1.4 0-.96.66-1.6 1.67-1.6 1.25 0 2.23.97 2.23 2.42 0 1.67-1.2 3.43-3.12 4.35M1195.3 738.57l-1.5 3.8h-10.9v-.32l4.97-5.27c2.6-2.75 3.62-4.87 3.62-7.24 0-2.53-1.52-3.92-3.88-3.92-2 0-2.98.9-4.1 3.62l-.58-.14c.58-3.26 2.37-5.54 5.8-5.54 3.14 0 5.14 2.14 5.14 4.9 0 2.2-1.1 4.3-3.56 6.9l-4.6 4.9h6.52c1.17 0 1.75-.3 2.67-1.86"/><path d="M510 696a6 6 0 0 1 6-6h128a6 6 0 0 1 6 6v238a6 6 0 0 1-6 6H516a6 6 0 0 1-6-6zM1600 696a6 6 0 0 1 6-6h128a6 6 0 0 1 6 6v238a6 6 0 0 1-6 6h-128a6 6 0 0 1-6-6zM1040 686a6 6 0 0 1 6-6h148a6 6 0 0 1 6 6v58a6 6 0 0 1-6 6h-148a6 6 0 0 1-6-6z" stroke="#ba23f6" stroke-width="2" fill-opacity="0"/><path d="M660 590c0 44.18-35.82 80-80 80s-80-35.82-80-80 35.82-80 80-80 80 35.82 80 80z" stroke="#282c33" stroke-width="2" fill="#9391ff"/><use xlink:href="#a" transform="matrix(1,0,0,1,505,515) translate(41.111111111111114 78.71527777777777)"/><use xlink:href="#b" transform="matrix(1,0,0,1,505,515) translate(96.54320987654322 78.71527777777777)"/><path d="M1200 590c0 44.18-35.82 80-80 80s-80-35.82-80-80 35.82-80 80-80 80 35.82 80 80z" stroke="#fcfcca" stroke-width="2" fill="#9391ff"/><use xlink:href="#a" transform="matrix(1,0,0,1,1045,515) translate(41.111111111111114 78.71527777777777)"/><use xlink:href="#c" transform="matrix(1,0,0,1,1045,515) translate(96.54320987654322 78.71527777777777)"/><path d="M1740 590c0 44.18-35.82 80-80 80s-80-35.82-80-80 35.82-80 80-80 80 35.82 80 80z" stroke="#282c33" stroke-width="2" fill="#9391ff"/><use xlink:href="#a" transform="matrix(1,0,0,1,1585,515) translate(41.111111111111114 78.71527777777777)"/><use xlink:href="#d" transform="matrix(1,0,0,1,1585,515) translate(96.54320987654322 78.71527777777777)"/><path d="M742.6 590.48h-81.1v-.96h81.1zm280.02 0H854.75v-.96h167.87z" stroke="#3a414a" stroke-width=".05" fill="#3a414a"/><path d="M661.5 590.48h-.5v-.95h.5z" fill="#3a414a"/><path stroke="#3a414a" stroke-width=".05" fill="#3a414a"/><path d="M1037.38 590l-14.26 4.63v-9.26z" fill="#3a414a"/><path d="M1038.92 590l-16.28 5.3v-10.6zm-15.33 3.98l12.25-3.98-12.26-3.98z" stroke="#3a414a" stroke-width=".05" fill="#3a414a"/><use xlink:href="#e" transform="matrix(1,0,0,1,742.5864197530865,576.6666666666666) translate(0 17.77777777777778)"/><use xlink:href="#f" transform="matrix(1,0,0,1,742.5864197530865,576.6666666666666) translate(99.81481481481482 17.77777777777778)"/><path d="M1354.6 590.48h-153.1v-.96h153.1zm208.02 0h-95.87v-.96h95.87z" stroke="#3a414a" stroke-width=".05" fill="#3a414a"/><path d="M1201.5 590.48h-.5v-.95h.5z" fill="#3a414a"/><path stroke="#3a414a" stroke-width=".05" fill="#3a414a"/><path d="M1577.38 590l-14.26 4.63v-9.26z" fill="#3a414a"/><path d="M1578.92 590l-16.28 5.3v-10.6zm-15.33 3.98l12.25-3.98-12.26-3.98z" stroke="#3a414a" stroke-width=".05" fill="#3a414a"/><use xlink:href="#e" transform="matrix(1,0,0,1,1354.5864197530868,576.6666666666666) translate(0 17.77777777777778)"/><use xlink:href="#g" transform="matrix(1,0,0,1,1354.5864197530868,576.6666666666666) translate(99.81481481481482 17.77777777777778)"/><path d="M1020 766a6 6 0 0 1 6-6h188a6 6 0 0 1 6 6v168a6 6 0 0 1-6 6h-188a6 6 0 0 1-6-6z" stroke="#e81313" stroke-width="2" fill-opacity="0"/><path d="M576.67 941.5V1094a6 6 0 0 0 6 6h479.95" stroke="#3a414a" fill="none"/><path d="M577.14 941.5h-.95v-.5h.94z" stroke="#3a414a" stroke-width=".05" fill="#3a414a"/><path d="M1077.38 1100l-14.26 4.63v-9.27z" stroke="#3a414a" fill="#3a414a"/><path d="M1080 1046a6 6 0 0 1 6-6h148a6 6 0 0 1 6 6v108a6 6 0 0 1-6 6h-148a6 6 0 0 1-6-6z" stroke="#ba23f6" stroke-width="2" fill="#fff"/><use xlink:href="#h" transform="matrix(1,0,0,1,1092,1052) translate(28.52469135802469 53.77777777777778)"/><path d="M1670 941.5V1094a6 6 0 0 1-6 6h-406.62" stroke="#3a414a" fill="none"/><path d="M1670.47 941.5h-.94v-.5h.94z" stroke="#3a414a" stroke-width=".05" fill="#3a414a"/><path d="M1242.62 1100l14.26-4.63v9.27z" stroke="#3a414a" fill="#3a414a"/><path d="M1038.5 716H1005a6 6 0 0 0-6 6v331.33a6 6 0 0 0 6 6h57.62" stroke="#3a414a" fill="none"/><path d="M1039 716.48h-.5v-.96h.5z" stroke="#3a414a" stroke-width=".05" fill="#3a414a"/><path d="M1077.38 1059.33l-14.26 4.64v-9.27z" stroke="#3a414a" fill="#3a414a"/><path d="M1260 836a6 6 0 0 1 6-6h148a6 6 0 0 1 6 6v28a6 6 0 0 1-6 6h-148a6 6 0 0 1-6-6z" stroke="#e81313" stroke-width="2" fill-opacity="0"/><g><use xlink:href="#i" transform="matrix(1,0,0,1,1265,835) translate(23.209876543209873 19.65277777777778)"/></g><path d="M1221.5 850h21.12" stroke="#3a414a" fill="none"/><path d="M1221.5 850.48h-.5v-.96h.5z" stroke="#3a414a" stroke-width=".05" fill="#3a414a"/><path d="M1257.38 850l-14.26 4.63v-9.26z" stroke="#3a414a" fill="#3a414a"/><defs><path fill="#fcfcca" d="M275 0h-61l-44-196L126 0H64L0-248h53L97-49l45-199h58l43 199 44-199h52" id="j"/><path fill="#fcfcca" d="M24-248c93 1 206-16 204 79-1 75-69 88-152 82V0H24v-248zm52 121c47 0 100 7 100-41 0-47-54-39-100-39v80" id="k"/><path fill="#fcfcca" d="M136-208V0H84v-208H4v-40h212v40h-80" id="l"/><g id="a"><use transform="matrix(0.06172839506172839,0,0,0.06172839506172839,0,0)" xlink:href="#j"/><use transform="matrix(0.06172839506172839,0,0,0.06172839506172839,20.925925925925924,0)" xlink:href="#k"/><use transform="matrix(0.06172839506172839,0,0,0.06172839506172839,35.74074074074073,0)" xlink:href="#l"/></g><path fill="#fcfcca" d="M23 0v-37h61v-169l-59 37v-38l62-41h46v211h57V0H23" id="m"/><use transform="matrix(0.06172839506172839,0,0,0.06172839506172839,0,0)" xlink:href="#m" id="b"/><path fill="#fcfcca" d="M182-182c0 78-84 86-111 141h115V0H12c-6-101 99-100 120-180 1-22-12-31-33-32-23 0-32 14-35 34l-49-3c5-45 32-70 84-70 51 0 83 22 83 69" id="n"/><use transform="matrix(0.06172839506172839,0,0,0.06172839506172839,0,0)" xlink:href="#n" id="c"/><path fill="#fcfcca" d="M128-127c34 4 56 21 59 58 7 91-148 94-172 28-4-9-6-17-7-26l51-5c1 24 16 35 40 36 23 0 39-12 38-36-1-31-31-36-65-34v-40c32 2 59-3 59-33 0-20-13-33-34-33s-33 13-35 32l-50-3c6-44 37-68 86-68 50 0 83 20 83 66 0 35-22 52-53 58" id="o"/><use transform="matrix(0.06172839506172839,0,0,0.06172839506172839,0,0)" xlink:href="#o" id="d"/><path fill="#333" d="M169-182c-1-43-94-46-97-3 18 66 151 10 154 114 3 95-165 93-204 36-6-8-10-19-12-30l50-8c3 46 112 56 116 5-17-69-150-10-154-114-4-87 153-88 188-35 5 8 8 18 10 28" id="p"/><path fill="#333" d="M185-48c-13 30-37 53-82 52C43 2 14-33 14-96s30-98 90-98c62 0 83 45 84 108H66c0 31 8 55 39 56 18 0 30-7 34-22zm-45-69c5-46-57-63-70-21-2 6-4 13-4 21h74" id="q"/><path fill="#333" d="M195-6C206 82 75 100 31 46c-4-6-6-13-8-21l49-6c3 16 16 24 34 25 40 0 42-37 40-79-11 22-30 35-61 35-53 0-70-43-70-97 0-56 18-96 73-97 30 0 46 14 59 34l2-30h47zm-90-29c32 0 41-27 41-63 0-35-9-62-40-62-32 0-39 29-40 63 0 36 9 62 39 62" id="r"/><path fill="#333" d="M220-157c-53 9-28 100-34 157h-49v-107c1-27-5-49-29-50C55-147 81-57 75 0H25l-1-190h47c2 12-1 28 3 38 10-53 101-56 108 0 13-22 24-43 59-42 82 1 51 116 57 194h-49v-107c-1-25-5-48-29-50" id="s"/><path fill="#333" d="M135-194c87-1 58 113 63 194h-50c-7-57 23-157-34-157-59 0-34 97-39 157H25l-1-190h47c2 12-1 28 3 38 12-26 28-41 61-42" id="t"/><path fill="#333" d="M115-3C79 11 28 4 28-45v-112H4v-33h27l15-45h31v45h36v33H77v99c-1 23 16 31 38 25v30" id="u"/><g id="e"><use transform="matrix(0.06172839506172839,0,0,0.06172839506172839,0,0)" xlink:href="#p"/><use transform="matrix(0.06172839506172839,0,0,0.06172839506172839,14.814814814814813,0)" xlink:href="#q"/><use transform="matrix(0.06172839506172839,0,0,0.06172839506172839,27.160493827160494,0)" xlink:href="#r"/><use transform="matrix(0.06172839506172839,0,0,0.06172839506172839,40.67901234567901,0)" xlink:href="#s"/><use transform="matrix(0.06172839506172839,0,0,0.06172839506172839,60.4320987654321,0)" xlink:href="#q"/><use transform="matrix(0.06172839506172839,0,0,0.06172839506172839,72.77777777777779,0)" xlink:href="#t"/><use transform="matrix(0.06172839506172839,0,0,0.06172839506172839,86.2962962962963,0)" xlink:href="#u"/></g><path fill="#333" d="M23 0v-37h61v-169l-59 37v-38l62-41h46v211h57V0H23" id="v"/><use transform="matrix(0.06172839506172839,0,0,0.06172839506172839,0,0)" xlink:href="#v" id="f"/><path fill="#333" d="M182-182c0 78-84 86-111 141h115V0H12c-6-101 99-100 120-180 1-22-12-31-33-32-23 0-32 14-35 34l-49-3c5-45 32-70 84-70 51 0 83 22 83 69" id="w"/><use transform="matrix(0.06172839506172839,0,0,0.06172839506172839,0,0)" xlink:href="#w" id="g"/><path fill="#3a414a" d="M194 0L95-120 63-95V0H30v-248h33v124l119-124h40L117-140 236 0h-42" id="x"/><path fill="#3a414a" d="M117-194c89-4 53 116 60 194h-32v-121c0-31-8-49-39-48C34-167 62-67 57 0H25l-1-190h30c1 10-1 24 2 32 11-22 29-35 61-36" id="y"/><path fill="#3a414a" d="M100-194c62-1 85 37 85 99 1 63-27 99-86 99S16-35 15-95c0-66 28-99 85-99zM99-20c44 1 53-31 53-75 0-43-8-75-51-75s-53 32-53 75 10 74 51 75" id="z"/><path fill="#3a414a" d="M206 0h-36l-40-164L89 0H53L-1-190h32L70-26l43-164h34l41 164 42-164h31" id="A"/><path fill="#3a414a" d="M135-143c-3-34-86-38-87 0 15 53 115 12 119 90S17 21 10-45l28-5c4 36 97 45 98 0-10-56-113-15-118-90-4-57 82-63 122-42 12 7 21 19 24 35" id="B"/><g id="h"><use transform="matrix(0.06172839506172839,0,0,0.06172839506172839,0,0)" xlink:href="#x"/><use transform="matrix(0.06172839506172839,0,0,0.06172839506172839,14.814814814814813,0)" xlink:href="#y"/><use transform="matrix(0.06172839506172839,0,0,0.06172839506172839,27.160493827160494,0)" xlink:href="#z"/><use transform="matrix(0.06172839506172839,0,0,0.06172839506172839,39.50617283950617,0)" xlink:href="#A"/><use transform="matrix(0.06172839506172839,0,0,0.06172839506172839,55.49382716049382,0)" xlink:href="#y"/><use transform="matrix(0.06172839506172839,0,0,0.06172839506172839,67.8395061728395,0)" xlink:href="#B"/></g><path fill="#3a414a" d="M232-93c-1 65-40 97-104 97C67 4 28-28 28-90v-158h33c8 89-33 224 67 224 102 0 64-133 71-224h33v155" id="C"/><path fill="#3a414a" d="M143 0L79-87 56-68V0H24v-261h32v163l83-92h37l-77 82L181 0h-38" id="D"/><g id="i"><use transform="matrix(0.06172839506172839,0,0,0.06172839506172839,0,0)" xlink:href="#C"/><use transform="matrix(0.06172839506172839,0,0,0.06172839506172839,15.987654320987653,0)" xlink:href="#y"/><use transform="matrix(0.06172839506172839,0,0,0.06172839506172839,28.333333333333332,0)" xlink:href="#D"/><use transform="matrix(0.06172839506172839,0,0,0.06172839506172839,39.44444444444444,0)" xlink:href="#y"/><use transform="matrix(0.06172839506172839,0,0,0.06172839506172839,51.79012345679012,0)" xlink:href="#z"/><use transform="matrix(0.06172839506172839,0,0,0.06172839506172839,64.1358024691358,0)" xlink:href="#A"/><use transform="matrix(0.06172839506172839,0,0,0.06172839506172839,80.12345679012346,0)" xlink:href="#y"/><use transform="matrix(0.06172839506172839,0,0,0.06172839506172839,92.46913580246914,0)" xlink:href="#B"/></g></defs></g></svg>